<svg id="dino9" enable-background="new 0 0 300 300" height="512" viewBox="0 0 300 300" width="512" xmlns="http://www.w3.org/2000/svg"><circle cx="174.954" cy="141.426" fill="#edebdc" r="90"/><g fill="#4c241d"><path d="m131.727 137.068c-2.211 0-4-1.791-4-4v-19.643c0-2.209 1.789-4 4-4s4 1.791 4 4v19.643c0 2.209-1.789 4-4 4z"/><path d="m151.411 139.99c-.555 0-1.117-.117-1.656-.361-2.008-.916-2.895-3.289-1.98-5.299l7.215-15.838c.918-2.012 3.289-2.895 5.301-1.982 2.008.916 2.895 3.289 1.98 5.299l-7.215 15.838c-.673 1.472-2.126 2.343-3.645 2.343z"/><path d="m168.938 147.58c-1.016 0-2.031-.385-2.812-1.156-1.57-1.553-1.586-4.086-.031-5.656l9.867-9.979c1.551-1.57 4.082-1.586 5.656-.031 1.57 1.553 1.586 4.086.031 5.656l-9.867 9.979c-.782.791-1.813 1.187-2.844 1.187z"/><path d="m187.047 161.014c-1.148 0-2.285-.488-3.074-1.438-1.418-1.695-1.188-4.219.508-5.633l11.938-9.961c1.699-1.422 4.227-1.188 5.633.508 1.418 1.695 1.188 4.219-.508 5.633l-11.938 9.961c-.746.625-1.656.93-2.559.93z"/><path d="m201.059 175.617c-1.605 0-3.121-.975-3.73-2.562-.797-2.062.23-4.377 2.293-5.172l11.375-4.385c2.051-.789 4.375.229 5.168 2.293.797 2.062-.23 4.377-2.293 5.172l-11.375 4.385c-.473.181-.958.269-1.438.269z"/><path d="m108.192 140.572c-1.859 0-3.527-1.303-3.914-3.195l-3.371-16.422c-.445-2.164.949-4.279 3.113-4.723 2.184-.447 4.281.949 4.723 3.113l3.371 16.422c.445 2.164-.949 4.279-3.113 4.723-.274.057-.544.082-.809.082z"/><path d="m90.676 151.086c-1.531 0-2.992-.883-3.656-2.369l-6.027-13.482c-.902-2.018.004-4.383 2.02-5.285 2.027-.902 4.387.006 5.285 2.02l6.027 13.482c.902 2.018-.004 4.383-2.02 5.285-.531.236-1.086.349-1.629.349z"/></g><path d="m31.434 196.512c-.894-3.078-.207-6.407 1.88-8.84 4.488-5.229 12.564-13.716 17.704-13.716h13.452s40.353-60.53 94.158-33.628 26.902 40.353 94.158 67.256h-73.981s-52.846 10.569-92.956-1.083c-7.886-2.291-16.276-2.881-24.203-.739-4.328 1.17-16.013-1.04-23.05-2.574-3.436-.749-6.181-3.3-7.162-6.676z" fill="#d9be6f"/><path d="m130.625 216.01c-14.848.002-31.129-1.379-45.895-5.668-7.797-2.264-15.414-2.508-22.043-.719-1.477.398-5.973 1.609-24.945-2.527-4.875-1.062-8.762-4.689-10.148-9.469-1.281-4.408-.281-9.104 2.684-12.559 12.973-15.113 18.82-15.113 20.742-15.113h11.398c7.504-10.094 47.137-58.627 98-33.205 25.301 12.65 33.355 22.49 41.145 32.006 8.785 10.729 17.078 20.861 52.707 35.113 1.781.713 2.805 2.588 2.445 4.471-.363 1.883-2.012 3.244-3.93 3.244h-73.594c-3.323.643-23.98 4.426-48.566 4.426zm-58.671-15.567c4.867 0 9.926.74 15.008 2.215 38.719 11.244 90.539 1.105 91.059 1.004.258-.053.523-.078.785-.078h54.934c-23.305-11.365-30.941-20.689-38.363-29.76-7.258-8.865-14.766-18.033-38.535-29.918-50.059-25.031-88.656 31.689-89.043 32.268-.742 1.113-1.992 1.781-3.328 1.781h-13.451c-1.418 0-6.305 2.576-14.672 12.322-1.195 1.396-1.598 3.311-1.074 5.117v.002c.57 1.959 2.168 3.445 4.172 3.883 12.59 2.748 19.176 3.16 21.156 2.621 3.598-.972 7.414-1.457 11.352-1.457z" fill="#4c241d"/><circle cx="51.018" cy="187.407" fill="#4c241d" r="3.338"/><path d="m148.539 177.319s-6.726 26.902 26.902 47.079c0 0-1.785 1.785-3.516 5.356-3.321 6.85 1.843 14.821 9.456 14.821 4.486 0 8.468-2.87 9.887-7.126l1.37-4.111c1.92-5.759 1.659-12.022-.732-17.602l-6.376-14.878" fill="#d9be6f"/><path d="m181.383 248.574c-5.016 0-9.605-2.547-12.277-6.814-2.629-4.193-2.922-9.334-.777-13.75.457-.943.918-1.783 1.363-2.52-31.59-21.152-25.324-47.971-25.031-49.143.531-2.143 2.703-3.459 4.848-2.91 2.137.535 3.438 2.693 2.918 4.828-.234.988-5.406 24.416 25.074 42.703 1.055.633 1.762 1.719 1.91 2.941.152 1.223-.27 2.445-1.141 3.316s-1.379 1.455-2.746 4.271c-.945 1.951-.812 4.143.359 6.016 1.199 1.916 3.258 3.061 5.5 3.061 2.766 0 5.215-1.764 6.086-4.389l1.375-4.113c1.609-4.832 1.395-10.074-.613-14.76l-6.375-14.879c-.871-2.031.07-4.383 2.102-5.252 2.012-.875 4.379.066 5.25 2.1l6.375 14.879c2.781 6.49 3.082 13.75.848 20.443l-1.371 4.111c-1.966 5.898-7.462 9.861-13.677 9.861z" fill="#4c241d"/><path d="m84.646 187.407s.275 3.761.847 8.261c1.129 8.872-.967 17.872-6.016 25.254-2.159 3.157-4.283 6.704-5.839 10.287-2.053 4.727 1.508 10.003 6.661 10.003h.021c2.63 0 5.041-1.438 6.318-3.736 2.491-4.484 6.975-11.957 11.458-16.44 10.634-10.634 13.451-20.177 13.451-20.177" fill="#d9be6f"/><path d="m80.321 245.211c-3.824 0-7.344-1.902-9.434-5.09-2.066-3.145-2.41-7.072-.918-10.504 1.488-3.428 3.578-7.113 6.207-10.955 4.465-6.525 6.363-14.512 5.348-22.488-.586-4.617-.867-8.473-.867-8.473-.164-2.203 1.492-4.121 3.695-4.283 2.156-.172 4.117 1.492 4.281 3.693.004.041.273 3.691.828 8.053 1.262 9.922-1.109 19.871-6.684 28.016-2.344 3.426-4.184 6.664-5.473 9.625-.594 1.367-.008 2.504.27 2.928.293.445 1.141 1.479 2.727 1.479 1.184 0 2.266-.643 2.836-1.674 2.973-5.344 7.484-12.684 12.133-17.33 9.68-9.682 12.418-18.412 12.445-18.498.645-2.107 2.867-3.312 4.98-2.674 2.109.633 3.312 2.842 2.688 4.955-.125.43-3.234 10.648-14.457 21.873-4.203 4.203-8.566 11.551-10.793 15.555-1.976 3.571-5.738 5.792-9.812 5.792z" fill="#4c241d"/><path d="m268.954 204.769s-7.852 9.838-17.134 9.535c-9.281-.302-16.476-10.631-16.476-10.631s7.852-9.838 17.134-9.535c9.28.303 16.476 10.631 16.476 10.631z" fill="#a9ba5a"/><path d="m252.235 218.311c-.18 0-.359-.002-.543-.008-11.16-.363-19.289-11.854-19.629-12.342-1.012-1.453-.949-3.398.156-4.783.371-.465 9.094-11.332 20.387-11.037 11.16.363 19.289 11.854 19.629 12.342 1.012 1.453.949 3.398-.156 4.783-.364.457-8.942 11.045-19.844 11.045zm-11.571-14.463c2.605 2.791 6.891 6.316 11.285 6.459.098.004.191.004.285.004 4.305 0 8.672-3.152 11.398-5.715-2.609-2.793-6.891-6.316-11.285-6.459-4.534-.196-8.897 3.093-11.683 5.711z" fill="#4c241d"/></svg>