<svg id="dino22" enable-background="new 0 0 300 300" height="512" viewBox="0 0 300 300" width="512" xmlns="http://www.w3.org/2000/svg"><path d="m258.563 227.889c2.547 9.501-10.441 21.24-10.441 21.24s-17.118-3.667-19.666-13.168c-2.547-9.501 10.441-21.24 10.441-21.24s17.119 3.666 19.666 13.168z" fill="#a9ba5a"/><path d="m248.122 253.129c-.279 0-.561-.029-.838-.088-1.998-.43-19.598-4.514-22.689-16.045-3.094-11.531 10.105-23.873 11.621-25.242.955-.863 2.262-1.211 3.52-.945 1.996.428 19.602 4.512 22.691 16.045 3.092 11.531-10.107 23.873-11.623 25.242-.743.672-1.702 1.033-2.682 1.033zm-8.032-33.978c-3.459 3.604-9.104 10.801-7.77 15.773 1.34 5 9.814 8.395 14.609 9.775 3.457-3.604 9.102-10.803 7.77-15.775-1.339-4.998-9.816-8.393-14.609-9.773z" fill="#4c241d"/><circle cx="162" cy="134" fill="#edebdc" r="90"/><path d="m88 120h-56s40.075-34.566 80.151-34.566v89.057l16.825-43.746c3.532-9.183 9.927-16.983 18.239-22.247l120.785-76.498s-106.868 71.245-111.321 151.396c0 0 25.985 0 44.062-13.558 6.399-4.8 15.318-5.525 22.133-1.337 4.204 2.583 7.944 7.103 9.503 14.895l13.358 62.34s-8.906-80.151-35.623-53.434c0 0-13.358 22.264-40.075 44.528-13.304 11.086-73.308 16.814-86.646-23.466-1.958-5.912-2.405-12.22-1.869-18.425z" fill="#fc8c29"/><path d="m245.733 249.736c-1.855 0-3.506-1.293-3.908-3.162l-8.023-37.439c-3.178-9.211-7.125-16.41-11.664-18-2.486-.867-5.461.371-8.869 3.674-2.1 3.383-15.5 24.121-40.67 45.094-9.572 7.977-36.516 12.26-58.246 6.057-17.615-5.029-29.633-15.865-34.756-31.336-1.994-6.02-2.688-12.758-2.057-20.029l6.1-70.594h-51.64c-1.672 0-3.168-1.039-3.75-2.605-.582-1.568-.129-3.332 1.137-4.424 1.684-1.451 41.676-35.537 82.764-35.537 2.209 0 4 1.791 4 4v67.516l9.094-23.641c3.812-9.916 10.855-18.506 19.83-24.189l120.785-76.5c1.852-1.172 4.299-.639 5.494 1.199 1.193 1.836.688 4.291-1.135 5.508-1.031.688-101.275 68.396-109.188 143.834 7.869-.654 24.793-3.137 37.309-12.523 7.848-5.887 18.555-6.51 26.629-1.547 5.922 3.641 9.734 9.535 11.33 17.52l5.066 23.637c3.34 9.018 6.404 21.574 8.346 39.047.236 2.117-1.23 4.049-3.334 4.391-.216.034-.431.049-.644.049zm-201.928-133.736h44.195c1.121 0 2.189.471 2.947 1.297.758.824 1.135 1.932 1.037 3.047l-6.477 74.939c-.535 6.184.031 11.842 1.682 16.824 5.373 16.227 18.932 23.182 29.359 26.16 20.383 5.816 44.148 1.141 50.928-4.51 25.896-21.58 39.076-43.297 39.207-43.514.168-.279.369-.539.602-.77 5.904-5.908 11.789-7.898 17.5-5.889.742.26 2.197.912 4.066 2.449l-.387-1.801c-1.154-5.77-3.736-9.898-7.686-12.326-5.301-3.258-12.391-2.803-17.639 1.131-18.926 14.193-45.346 14.357-46.461 14.357-1.1 0-2.15-.453-2.906-1.252-.756-.797-1.148-1.873-1.088-2.971 1.902-34.236 21.574-70.686 58.467-108.332 1.934-1.973 3.867-3.896 5.787-5.77l-67.584 42.805c-7.533 4.771-13.445 11.98-16.646 20.303l-16.826 43.746c-.691 1.799-2.568 2.842-4.463 2.498-1.895-.354-3.27-2.006-3.27-3.934v-84.934c-25.68 1.514-51.172 17.082-64.344 26.447z" fill="#4c241d"/><path d="m136 227.925v28.075h-8c-6.627 0-12 5.373-12 12h36.226v-36c6.502 0 11.774-5.271 11.774-11.774v-10.113" fill="#fc8c29"/><g fill="#4c241d"><path d="m152.227 272h-36.227c-2.209 0-4-1.791-4-4 0-8.822 7.178-16 16-16h4v-24.076c0-2.209 1.791-4 4-4s4 1.791 4 4v28.076c0 2.209-1.791 4-4 4h-8c-2.955 0-5.541 1.611-6.926 4h27.152v-32c0-2.209 1.791-4 4-4 4.287 0 7.773-3.486 7.773-7.773v-10.113c0-2.209 1.791-4 4-4s4 1.791 4 4v10.113c0 7.316-5.006 13.484-11.773 15.26v32.513c.001 2.209-1.79 4-3.999 4z"/><path d="m116.608 200.754c-1.295 0-2.564-.627-3.336-1.787-1.223-1.84-.721-4.322 1.119-5.545l.85-.564c7.295-4.865 12.738-12.166 15.322-20.557l9.973-32.414c2.359-7.668 5.639-15.053 9.744-21.949l14.283-23.984c1.131-1.896 3.582-2.518 5.484-1.391 1.898 1.131 2.52 3.586 1.391 5.484l-14.283 23.984c-3.781 6.35-6.801 13.148-8.975 20.209l-9.973 32.414c-3.123 10.146-9.705 18.975-18.535 24.863l-.855.568c-.68.452-1.449.669-2.209.669z"/><circle cx="88" cy="104" r="3.139"/></g></svg>