<svg id="dino21" enable-background="new 0 0 300 300" height="512" viewBox="0 0 300 300" width="512" xmlns="http://www.w3.org/2000/svg"><circle cx="124" cy="124" fill="#edebdc" r="90"/><path d="m150 186v22.286c0 8.621 4.107 16.725 11.059 21.823l10.76 7.89v12h-2.687c-6.025 0-10.909 5.373-10.909 12h31.777v-36l-10.909-12s19.131-16 .949-40" fill="#44bcd8"/><path d="m190 266h-31.777c-2.209 0-4-1.791-4-4 0-8.348 5.988-15.223 13.596-15.939v-6.033l-9.125-6.693c-7.95-5.829-12.694-15.192-12.694-25.048v-22.287c0-2.209 1.791-4 4-4s4 1.791 4 4v22.287c0 7.316 3.523 14.27 9.424 18.598l10.76 7.889c1.027.754 1.635 1.953 1.635 3.227v12c0 2.209-1.791 4-4 4h-2.688c-2.553 0-4.785 1.611-5.98 4h22.849v-30.453l-9.869-10.855c-.734-.807-1.105-1.877-1.031-2.965.074-1.086.588-2.096 1.424-2.795.643-.549 15.896-13.967.33-34.516-1.334-1.762-.988-4.27.771-5.604 1.762-1.342 4.271-.986 5.604.771 15.498 20.457 6.482 36.135 1.297 42.449l8.434 9.275c.67.736 1.041 1.695 1.041 2.691v36c-.001 2.21-1.792 4.001-4.001 4.001z" fill="#4c241d"/><path d="m85.044 128s-5.765-2.883-19.742-3.754c-4.942-.308-9.143-3.786-10.344-8.59l-.608-2.432c-.943-3.772.03-7.836 2.777-10.587 4.222-4.227 11.905-9.039 23.917-6.637 0 0 1.036-15.535 13.54-18.285 10.579-2.326 19.416 5.454 19.416 16.285v40s71.044-46 123.044 18l24.956-54v52c0 29.491-22.863 52-52.353 52h-66.603s-2-22-34-34-24-40-24-40z" fill="#44bcd8"/><path d="m209.646 206h-66.602c-2.068 0-3.797-1.578-3.984-3.639-.082-.771-2.424-19.742-31.42-30.615-27.816-10.432-28.191-32.354-27.117-41.113-2.801-.812-7.82-1.918-15.469-2.395-6.729-.42-12.346-5.086-13.977-11.611l-.609-2.43c-1.299-5.209.168-10.719 3.826-14.387 6.191-6.195 14.406-9.076 23.451-8.316 1.336-5.684 5.174-15.309 15.979-17.686 6.125-1.342 12.051-.021 16.707 3.721 4.811 3.867 7.569 9.871 7.569 16.471v33.217c18.35-9.309 74.008-31.232 118.027 17.449l22.342-48.344c.787-1.705 2.658-2.645 4.49-2.229 1.834.403 3.141 2.028 3.141 3.907v52c0 31.402-24.754 56-56.354 56zm-63.353-8h63.354c27.566 0 48.353-20.635 48.353-48v-33.809l-17.324 37.486c-.578 1.254-1.764 2.119-3.133 2.291-1.389.174-2.732-.377-3.602-1.447-49.181-60.521-114.994-18.964-117.767-17.164-1.232.801-2.799.855-4.084.156-1.289-.699-2.09-2.049-2.09-3.514v-39.999c0-4.164-1.67-7.895-4.582-10.234-2.73-2.195-6.273-2.955-9.975-2.145-9.463 2.082-10.398 14.52-10.408 14.645-.076 1.15-.645 2.211-1.559 2.91-.914.703-2.086.979-3.217.746-10.174-2.037-16.656 1.889-20.303 5.541-1.688 1.691-2.35 4.295-1.727 6.793l.609 2.428c.781 3.131 3.479 5.369 6.713 5.57 14.373.896 20.617 3.836 21.281 4.168 1.717.859 2.58 2.814 2.061 4.662-.277 1.002-6.471 24.662 21.555 35.17 26.435 9.912 33.825 26.435 35.845 33.746z" fill="#4c241d"/><path d="m146.949 178-16.38 24-8.19-8-16.379 16v-18.286c0-5.365 4.452-9.714 9.945-9.714h14.625v-7.132c0-9.316 7.731-16.868 17.269-16.868h3.206" fill="#44bcd8"/><path d="m106 214c-.523 0-1.051-.102-1.553-.314-1.482-.624-2.447-2.077-2.447-3.686v-18.285c0-7.562 6.256-13.715 13.945-13.715h10.625v-3.131c0-11.508 9.541-20.869 21.268-20.869h3.207c2.209 0 4 1.791 4 4s-1.791 4-4 4h-3.207c-7.316 0-13.268 5.773-13.268 12.869v7.131c0 2.209-1.791 4-4 4h-14.625c-3.277 0-5.945 2.564-5.945 5.715v8.785l9.584-9.361c1.555-1.52 4.035-1.52 5.59 0l4.779 4.668 13.691-20.061c1.248-1.824 3.736-2.295 5.559-1.051 1.826 1.246 2.295 3.734 1.051 5.559l-16.379 24c-.668.979-1.732 1.609-2.908 1.727-1.189.121-2.346-.293-3.191-1.119l-5.396-5.27-13.584 13.27c-.763.743-1.773 1.138-2.796 1.138z" fill="#4c241d"/><path d="m178 186v21.378c0 9.125 4.598 17.635 12.23 22.636l12.188 7.986v12h-3.896c-6.454 0-11.687 5.373-11.687 12h31.165v-36l-13.635-14s25.321-14 5.843-38" fill="#44bcd8"/><path d="m218 266h-31.164c-2.209 0-4-1.791-4-4 0-8.787 6.98-15.943 15.582-16v-5.838l-10.379-6.803c-8.791-5.758-14.039-15.471-14.039-25.98v-21.379c0-2.209 1.791-4 4-4s4 1.791 4 4v21.379c0 7.803 3.896 15.014 10.422 19.289l12.188 7.986c1.129.738 1.809 1.996 1.809 3.346v12c0 2.209-1.791 4-4 4h-3.896c-2.84 0-5.324 1.611-6.654 4h22.131v-30.375l-12.5-12.834c-.871-.895-1.273-2.143-1.092-3.377.182-1.232.93-2.311 2.021-2.914.08-.045 9.197-5.258 10.875-14.051 1.055-5.527-1.031-11.559-6.201-17.928-1.393-1.717-1.131-4.234.584-5.627 1.719-1.389 4.236-1.129 5.627.584 6.748 8.314 9.383 16.574 7.834 24.547-1.527 7.854-6.811 13.424-10.645 16.545l10.361 10.639c.729.748 1.135 1.748 1.135 2.791v36c.001 2.209-1.79 4-3.999 4z" fill="#4c241d"/><path d="m103.044 90 24-16-8 24 20 4-36 8c0 4.049-1.538 7.732-4.057 10.504" fill="#d9be6f"/><g fill="#4c241d"><path d="m98.984 124.504c-.959 0-1.922-.344-2.689-1.041-1.635-1.484-1.754-4.016-.268-5.65 1.945-2.141 3.018-4.916 3.018-7.812 0-1.875 1.303-3.498 3.133-3.904l17.502-3.891-1.42-.283c-1.125-.225-2.098-.922-2.674-1.914s-.699-2.184-.336-3.273l4.314-12.939-14.301 9.533c-1.842 1.227-4.322.725-5.547-1.109-1.225-1.838-.729-4.322 1.109-5.547l24-16c1.424-.945 3.291-.885 4.646.148 1.357 1.039 1.908 2.824 1.367 4.445l-6.566 19.701 15.557 3.111c1.854.371 3.195 1.988 3.215 3.879s-1.287 3.537-3.133 3.947l-33.141 7.365c-.619 3.682-2.279 7.125-4.826 9.926-.788.866-1.872 1.308-2.96 1.308z"/><circle cx="95.044" cy="98" r="2.949"/></g></svg>