<svg height="511pt" viewBox="0 -4 511.96954 511" width="511pt" xmlns="http://www.w3.org/2000/svg"><path d="m362.078125 235.472656c-1.277344-8.273437-4.347656-16.167968-9.003906-23.128906-17.65625-26.480469-18.1875-49.167969 8.828125-91.1875 25.6875-39.902344 84.476562-82.625 88.097656-85.273438.046875-.050781.109375-.082031.175781-.089843l-.175781.089843c-4.945312.617188-109.726562 15.359376-164.898438 94.1875l-29.132812 82.265626zm0 0" fill="#f18d46"/><path d="m511.96875 341.84375c0 47.050781-44.136719 64.707031-44.136719 64.707031s-8.828125-38.222656-35.3125-38.222656c-14.84375-1.605469-28.972656-7.222656-40.871093-16.242187-19.859376.96875-36.546876 12.535156-47.402344 1.5-18.007813-18.183594-37.519532-37.605469-64.53125-1.148438-3.175782 4.328125-6.179688 8.210938-8.828125 11.742188l-31.867188 22.246093c-1.820312-1.953125-3.3125-4.1875-4.414062-6.621093-9.003907-18.273438-13.945313-35.046876-54.113281-8.5625-37.867188 24.980468-72.03125 6.179687-117.140626-30.28125-40.960937-33.191407-74.503906-96.394532-59.851562-135.058594 1.414062-3.828125 3.375-7.425782 5.828125-10.683594-.621094-2.84375-.972656-5.742188-1.0625-8.652344-1.644531-12.664062 6.808594-24.433594 19.335937-26.921875 2.867188-.636719 5.800782-.933593 8.738282-.882812.082031-2.949219.496094-5.882813 1.234375-8.738281 1.9375-11.960938 12.523437-20.578126 24.628906-20.039063 3.429687.042969 6.839844.519531 10.152344 1.410156.589843-2.171875 1.417969-4.273437 2.472656-6.265625 4.058594-8.5625 14.210937-19.773437 33.632813 6.265625 0 0 9.003906-18.183593 36.015624 27.367188 10.355469 17.230469 23.933594 32.304687 39.988282 44.402343 10.042968-17.042968 19.179687-34.605468 27.367187-52.613281 52.964844-114.757812 114.757813-141.242187 114.757813-141.242187-52.964844 88.277344-44.136719 150.070312-35.308594 191.296875l35.308594 17.652343c13.066406 13.066407 21.273437 11.652344 35.488281 17.214844 6.164063 2.40625 12.027344 5.515625 17.476563 9.269532 26.484374 17.65625 61.792968-26.484376 70.621093-8.828126s-8.828125 26.484376 0 44.136719c8.828125 17.65625 61.792969 26.484375 61.792969 61.792969zm0 0" fill="#f9eab0"/><path d="m495.992188 385.453125c-7.734376 9.003906-17.347657 16.203125-28.160157 21.097656 0 0-8.828125-38.222656-35.3125-38.222656-14.84375-1.605469-28.972656-7.222656-40.871093-16.242187-19.859376.96875-36.546876 12.535156-47.402344 1.5-15.097656-15.273438-31.25-31.335938-51.996094-14.652344 25.070312-30.015625 43.609375-11.476563 60.824219 5.824218 10.855469 11.035157 27.539062-.527343 47.402343-1.5 11.898438 9.023438 26.027344 14.636719 40.871094 16.242188 26.484375 0 35.3125 38.222656 35.3125 38.222656 7.011719-3.117187 13.523438-7.253906 19.332032-12.269531zm0 0" fill="#fac176"/><path d="m112.867188 273.929688c-6.328126-.042969-12.605469-1.117188-18.585938-3.171876-4.625-1.542968-7.125-6.542968-5.582031-11.167968s6.542969-7.125 11.167969-5.582032c14.128906 4.71875 47.226562 15.75 103.945312-107.152343 53.773438-116.503907 116.648438-144.519531 119.300781-145.65625 3.519531-1.507813 7.609375-.574219 10.125 2.308593 2.519531 2.882813 2.890625 7.0625.921875 10.34375-47.824218 79.71875-44.726562 135.972657-34.246094 184.890626 1.019532 4.765624-2.015624 9.460937-6.785156 10.480468-4.769531 1.023438-9.460937-2.015625-10.480468-6.785156-6.199219-28.925781-18.304688-85.429688 18.78125-164.75-21.898438 19.289062-53.085938 54.808594-81.585938 116.5625-37.972656 82.28125-70.941406 119.675781-106.976562 119.679688zm0 0" fill="#fac176"/><path d="m267.621094 362.390625c11.703125 6.378906 24.929687 9.4375 38.246094 8.851563 20.722656 0 28.03125 12.585937 38.378906 35.308593 10.347656 22.722657 40.1875 26.125 42.269531 45.753907 2.078125 19.628906 15.519531 34.085937 46.511719 26.832031 0 0-26.835938 46.511719-70.25 11.410156-43.414063-35.097656-34.375-27.585937-89.152344-57.511719-54.78125-29.925781-36.992188-63.394531-6.003906-70.644531zm0 0" fill="#fac176"/><g fill="#f18d46"><path d="m423.695312 324.175781c-4.871093 0-8.824218-3.945312-8.828124-8.8125.21875-9.191406-3.058594-18.125-9.167969-24.992187-4.492188-2.960938-10.121094-3.617188-15.171875-1.765625-11.234375 2.804687-14.949219 6.25-15.347656 7.679687-.308594 1.113282 1.226562 3.429688 1.789062 3.996094 2.289062 2.21875 3.203125 5.496094 2.394531 8.578125-.8125 3.082031-3.21875 5.488281-6.296875 6.296875-3.082031.808594-6.359375-.105469-8.578125-2.390625-5.574219-5.53125-7.957031-13.515625-6.320312-21.195313 2.617187-9.453124 11.800781-16.027343 28.070312-20.097656 10.332031-3.300781 21.625-1.441406 30.351563 5 15.484375 12.09375 15.929687 36.167969 15.929687 38.875 0 4.878906-3.949219 8.828125-8.824219 8.828125zm0 0"/><path d="m282.453125 238.828125c0-14.625-7.90625-26.484375-17.65625-26.484375s-17.65625 11.859375-17.65625 26.484375 7.90625 26.480469 17.65625 26.480469 17.65625-11.855469 17.65625-26.480469zm0 0"/><path d="m238.3125 327.101562c0 4.878907-3.949219 8.828126-8.824219 8.828126s-8.828125-3.949219-8.828125-8.828126c0-4.875 3.953125-8.824218 8.828125-8.824218s8.824219 3.949218 8.824219 8.824218zm0 0"/></g><path d="m51.433594 252.511719c-1.621094 2.46875-4.371094 3.960937-7.324219 3.972656-1.738281.019531-3.4375-.507813-4.855469-1.503906-16.753906-12.222657-29.253906-29.386719-35.753906-49.078125 1.414062-3.828125 3.375-7.425782 5.828125-10.683594-.621094-2.84375-.972656-5.742188-1.0625-8.652344 4.433594-.589844 8.59375 2.273438 9.625 6.621094.085937.265625 7.945313 31.691406 31.070313 47.140625 1.957031 1.277344 3.316406 3.285156 3.78125 5.574219.464843 2.289062-.007813 4.667968-1.308594 6.609375zm0 0" fill="#fac176"/><path d="m68.03125 218.613281c-3.480469 3.414063-9.054688 3.414063-12.535156 0-19.246094-19.332031-27.453125-56.410156-27.808594-58-.070312-.316406-.097656-.644531-.085938-.96875 2.867188-.636719 5.800782-.933593 8.738282-.882812.082031-2.949219.496094-5.882813 1.234375-8.738281 3.671875.507812 6.636719 3.257812 7.414062 6.882812.089844.355469 7.417969 33.632812 23.042969 49.171875 3.441406 3.46875 3.441406 9.066406 0 12.535156zm0 0" fill="#fac176"/><path d="m92.21875 193.71875c-1.222656.652344-2.589844.984375-3.972656.96875-3.335938.03125-6.390625-1.855469-7.855469-4.851562-7.632813-17.734376-13.773437-36.070313-18.363281-54.820313-.429688-1.660156-.367188-3.40625.175781-5.03125 3.429687.042969 6.839844.519531 10.152344 1.410156.589843-2.171875 1.417969-4.273437 2.472656-6.265625 2.164063 1.199219 3.734375 3.246094 4.324219 5.648438 4.328125 17.449218 9.992187 34.535156 16.949218 51.113281 1.066407 2.082031 1.253907 4.5.523438 6.722656-.726562 2.222657-2.316406 4.058594-4.40625 5.105469zm0 0" fill="#fac176"/></svg>