<svg height="512pt" viewBox="0 -30 512 511" width="512pt" xmlns="http://www.w3.org/2000/svg"><g fill="#f5efca"><path d="m282.484375 364.265625c-4.878906 0-8.828125-3.949219-8.828125-8.824219v-17.65625c0-4.875 3.949219-8.828125 8.828125-8.828125 4.875 0 8.824219 3.953125 8.824219 8.828125v17.65625c0 4.875-3.949219 8.824219-8.824219 8.824219zm0 0"/><path d="m300.933594 372.230469c-3.507813 0-6.683594-2.078125-8.089844-5.292969-1.402344-3.214844-.773438-6.957031 1.609375-9.53125 2.945313-2.933594 4.925781-6.691406 5.683594-10.777344 0-4.875 3.953125-8.828125 8.828125-8.828125s8.828125 3.953125 8.828125 8.828125c-.730469 8.5625-4.398438 16.605469-10.382813 22.769532-1.667968 1.804687-4.019531 2.832031-6.476562 2.832031zm0 0"/><path d="m326.621094 381.921875c-3.566406 0-6.78125-2.144531-8.152344-5.4375-1.367188-3.292969-.621094-7.085937 1.894531-9.613281 3.195313-3.089844 5.375-7.074219 6.257813-11.429688 0-4.878906 3.953125-8.828125 8.828125-8.828125s8.828125 3.949219 8.828125 8.828125c-.886719 9.054688-4.925782 17.511719-11.414063 23.894532-1.65625 1.660156-3.902343 2.589843-6.242187 2.585937zm0 0"/><path d="m361.929688 390.75c-3.546876 0-6.75-2.125-8.132813-5.394531-1.378906-3.265625-.667969-7.046875 1.804687-9.589844 4.472657-5.800781 6.71875-13.011719 6.328126-20.324219 0-4.878906 3.953124-8.828125 8.828124-8.828125s8.828126 3.949219 8.828126 8.828125c.515624 11.964844-3.566407 23.671875-11.414063 32.722656-1.652344 1.65625-3.898437 2.589844-6.242187 2.585938zm0 0"/><path d="m402.007812 392.179688c-3.03125 0-5.851562-1.558594-7.464843-4.125-1.617188-2.566407-1.800781-5.78125-.492188-8.515626 2.191407-4.78125 3.28125-9.996093 3.191407-15.253906 0-4.875 3.953124-8.828125 8.828124-8.828125s8.828126 3.953125 8.828126 8.828125c.074218 7.898438-1.609376 15.714844-4.929688 22.882813-1.46875 3.0625-4.5625 5.011719-7.960938 5.011719zm0 0"/><path d="m434.75 387.855469c-3.289062-.003907-6.300781-1.832031-7.820312-4.75-1.519532-2.914063-1.292969-6.433594.585937-9.128907 3.515625-5.523437 5.269531-11.980468 5.035156-18.519531 0-4.875 3.953125-8.828125 8.828125-8.828125s8.828125 3.953125 8.828125 8.828125c.253907 10.15625-2.613281 20.144531-8.210937 28.621094-1.648438 2.367187-4.359375 3.78125-7.246094 3.777344zm0 0"/><path d="m463.371094 388.03125c-3.808594.003906-7.1875-2.433594-8.386719-6.042969-1.199219-3.613281.050781-7.589843 3.101563-9.863281 5.707031-3.699219 9.332031-9.878906 9.777343-16.667969 0-4.875 3.949219-8.828125 8.828125-8.828125 4.875 0 8.824219 3.953125 8.824219 8.828125-.335937 12.394531-6.617187 23.863281-16.878906 30.824219-1.519531 1.136719-3.367188 1.75-5.265625 1.75zm0 0"/><path d="m485.515625 258.335938c-3.566406 0-6.785156-2.152344-8.152344-5.449219-1.367187-3.296875-.609375-7.09375 1.914063-9.621094 3.570312-4.558594 5.648437-10.109375 5.945312-15.898437.375-3.128907 2.390625-5.824219 5.292969-7.066407 2.898437-1.242187 6.242187-.84375 8.765625 1.046875 2.527344 1.890625 3.851562 4.984375 3.476562 8.117188-.730468 9.71875-4.589843 18.941406-11 26.289062-1.652343 1.65625-3.898437 2.585938-6.242187 2.582032zm0 0"/><path d="m450.207031 249.507812c-3.570312 0-6.789062-2.152343-8.152343-5.449218-1.367188-3.296875-.613282-7.09375 1.910156-9.617188 3.113281-3.902344 5.046875-8.613281 5.570312-13.574218.804688-4.808594 5.355469-8.054688 10.164063-7.25 4.808593.804687 8.054687 5.355468 7.25 10.164062-1.105469 8.589844-4.765625 16.652344-10.503907 23.140625-1.652343 1.65625-3.898437 2.589844-6.238281 2.585937zm0 0"/><path d="m423.734375 258.335938c-3.347656.003906-6.410156-1.886719-7.90625-4.878907-1.566406-3.277343-3.554687-6.332031-5.914063-9.09375-3.199218-3.636719-2.867187-9.171875.742188-12.402343 3.609375-3.230469 9.144531-2.949219 12.410156.628906 3.410156 3.929687 6.289063 8.292968 8.554688 12.976562 1.367187 2.734375 1.222656 5.984375-.382813 8.585938-1.605469 2.601562-4.445312 4.1875-7.503906 4.1875zm0 0"/><path d="m406.070312 284.820312c-4.875 0-8.828124-3.953124-8.828124-8.828124-.65625-7.492188-3.480469-14.632813-8.121094-20.546876-1.839844-2.585937-2.148438-5.957031-.8125-8.835937 1.339844-2.875 4.113281-4.8125 7.277344-5.074219 3.160156-.265625 6.21875 1.1875 8.011718 3.804688 6.703125 8.882812 10.632813 19.542968 11.300782 30.652344 0 4.875-3.953126 8.828124-8.828126 8.828124zm0 0"/><path d="m370.757812 284.820312c-4.875 0-8.828124-3.953124-8.828124-8.828124v-19.15625c0-4.875 3.953124-8.828126 8.828124-8.828126s8.828126 3.953126 8.828126 8.828126v19.15625c0 4.875-3.953126 8.828124-8.828126 8.828124zm0 0"/><path d="m326.621094 293.648438c-3.570313 0-6.792969-2.152344-8.160156-5.453126-1.367188-3.300781-.609376-7.097656 1.917968-9.621093 4.109375-5.6875 6.269532-12.554688 6.160156-19.570313.167969-4.851562 4.183594-8.675781 9.039063-8.605468 2.339844.054687 4.5625 1.039062 6.175781 2.734374 1.617188 1.695313 2.488282 3.960938 2.429688 6.300782.042968 11.542968-3.964844 22.738281-11.320313 31.632812-1.65625 1.652344-3.902343 2.582032-6.242187 2.582032zm0 0"/><path d="m291.300781 293.648438c-3.058593-.003907-5.894531-1.589844-7.503906-4.191407-1.605469-2.601562-1.75-5.851562-.382813-8.585937 4.011719-7.023438 6.691407-14.726563 7.902344-22.71875.1875-4.75 4.070313-8.511719 8.820313-8.554688l.179687.007813c4.785156.050781 8.640625 3.941406 8.648438 8.730469-1.015625 10.730468-4.34375 21.113281-9.757813 30.429687-1.496093 2.996094-4.558593 4.882813-7.90625 4.882813zm0 0"/><path d="m255.992188 293.648438c-3.058594-.003907-5.898438-1.589844-7.503907-4.191407-1.605469-2.601562-1.753906-5.851562-.382812-8.585937 5.628906-11.253906 1.582031-16.34375 1.402343-16.554688-3.050781-3.65625-2.746093-9.046875.699219-12.332031 3.378907-3.230469 8.714844-3.179687 12.035157.109375 4.949218 4.949219 10.871093 18.242188 1.652343 36.671875-1.496093 2.996094-4.554687 4.882813-7.902343 4.882813zm0 0"/><path d="m211.863281 293.648438c-3.574219 0-6.792969-2.152344-8.160156-5.453126-1.367187-3.300781-.609375-7.097656 1.917969-9.621093 3.464844-4.425781 5.511718-9.789063 5.878906-15.398438.695312-4.785156 5.109375-8.121093 9.898438-7.484375 4.792968.640625 8.183593 5.011719 7.601562 9.8125-.839844 9.457032-4.65625 18.40625-10.898438 25.5625-1.652343 1.652344-3.898437 2.582032-6.238281 2.582032zm0 0"/></g><path d="m485.515625 393.0625c0 17.65625-26.480469 44.136719-61.792969 35.3125-56.011718-12.195312-114.382812-7.496094-167.722656 13.503906-70.621094 26.484375-150.070312-4.679687-185.378906-22.332031-35.3125-17.65625-52.964844 8.828125-61.792969-17.65625-1.621094-4.972656-1.558594-10.339844.175781-15.273437 6-13.441407 15.746094-24.875 28.070313-32.925782l59.765625-16.152344h.175781c43.167969-3.886718 120.9375 3.792969 158.984375 11.386719 44.136719 8.828125 97.101562 44.136719 141.242188 35.308594 1.234374-.265625 2.558593-.527344 3.796874-.707031 10.679688-2.066406 21.464844-3.539063 32.308594-4.410156 9.1875-.804688 18.429688-.867188 27.628906-.179688 8.144532-.117188 16.054688 2.738281 22.246094 8.035156 1.484375 1.679688 2.300782 3.847656 2.292969 6.089844zm0 0" fill="#f18d46"/><path d="m483.222656 386.972656c-11.210937 21.609375-36.082031 32.347656-59.5 25.6875-56.011718-12.191406-114.382812-7.492187-167.722656 13.507813-70.621094 26.480469-150.070312-4.679688-185.378906-22.335938-35.132813-17.566406-52.789063 8.5625-61.617188-17.214843 6-13.441407 15.746094-24.875 28.070313-32.925782l59.765625-16.152344h.175781c43.167969-3.886718 120.9375 3.792969 158.984375 11.386719 44.136719 8.828125 97.101562 44.136719 141.242188 35.308594 1.234374-.265625 2.558593-.527344 3.796874-.707031 10.679688-2.066406 21.464844-3.539063 32.308594-4.410156 9.1875-.804688 18.429688-.867188 27.628906-.179688 8.144532-.117188 16.054688 2.738281 22.246094 8.035156zm0 0" fill="#fac176"/><path d="m141.242188 417.234375c-13.617188-.546875-26.976563-3.867187-39.257813-9.761719-4.34375-2.1875-6.097656-7.472656-3.925781-11.824218 2.167968-4.347657 7.449218-6.125 11.808594-3.972657 9.835937 4.671875 20.5 7.355469 31.375 7.902344 4.875 0 8.828124 3.953125 8.828124 8.828125s-3.953124 8.828125-8.828124 8.828125zm0 0" fill="#f18d46"/><path d="m512 212.8125c0-17.65625-35.308594-44.136719-70.621094-70.621094-35.308594-26.484375-97.101562-150.070312-220.6875-141.242187-123.589844 8.828125-105.933594 105.933593-123.589844 114.757812-17.652343 8.828125-35.308593 8.828125-35.308593 26.484375 0 0-61.792969 26.484375-61.792969 70.621094s35.308594 17.65625 17.65625 88.277344c-17.65625 70.617187 79.445312 70.617187 79.445312 35.308594 0-35.308594 0-44.136719 35.3125-44.136719 35.308594 0 79.449219-35.3125 132.414063-35.3125s150.070313 17.65625 167.722656-44.136719c0 0 79.449219 35.308594 79.449219 0zm0 0" fill="#f9eab0"/><path d="m101.816406 239.769531c3.988282-5.414062 5.261719-12.363281 3.460938-18.84375-1.804688-6.480469-6.488282-11.769531-12.699219-14.347656-18.472656-8.296875-27.710937-24.894531-36.945313-16.59375-9.238281 8.296875 9.234376 24.890625 0 41.488281-9.238281 16.59375 9.234376 66.386719 46.183594 8.296875zm0 0" fill="#fac176"/><path d="m168.21875 178.890625c-6.296875-15.835937-21.535156-26.296875-38.578125-26.484375-15.429687 0 0 97.105469 30.863281 97.105469 30.863282 0 7.714844-70.621094 7.714844-70.621094zm0 0" fill="#f18d46"/><path d="m221.605469 152.40625c52.917969-.011719 121.792969 35.929688 113.09375 50.296875-8.699219 14.371094-113.09375 28.742187-113.09375 14.371094 0-14.371094-43.496094-64.65625 0-64.667969zm0 0" fill="#f18d46"/><path d="m423.722656 178.890625c0-9.75-13.832031-17.65625-30.894531-17.65625s-30.898437 7.90625-30.898437 17.65625 13.835937 17.652344 30.898437 17.652344 30.894531-7.902344 30.894531-17.652344zm0 0" fill="#f18d46"/><path d="m326.628906 152.40625c-4.085937.003906-7.644531-2.796875-8.59375-6.773438-.953125-3.972656.949219-8.082031 4.59375-9.929687 12.996094-8.179687 23.929688-19.242187 31.957032-32.332031 1.734374-2.65625 4.761718-4.175782 7.929687-3.980469 3.167969.191406 5.988281 2.074219 7.382813 4.921875 1.398437 2.847656 1.160156 6.226562-.625 8.851562-9.621094 15.707032-22.902344 28.851563-38.703126 38.3125-1.226562.609376-2.574218.929688-3.941406.929688zm0 0" fill="#fac176"/><path d="m291.320312 134.75c-4.082031.003906-7.632812-2.792969-8.589843-6.757812-.957031-3.96875.933593-8.074219 4.566406-9.929688 10.820313-7.042969 18.6875-17.800781 22.121094-30.242188 1.542969-4.625 6.542969-7.125 11.167969-5.582031s7.125 6.542969 5.582031 11.167969c-4.863281 16.875-15.894531 31.300781-30.910157 40.414062-1.222656.609376-2.570312.929688-3.9375.929688zm0 0" fill="#fac176"/><path d="m256 125.925781c-2.835938-.003906-5.5-1.367187-7.160156-3.671875-1.65625-2.300781-2.109375-5.257812-1.214844-7.953125l8.828125-26.480469c.996094-2.992187 3.515625-5.226562 6.605469-5.859374 3.089844-.628907 6.28125.433593 8.375 2.792968 2.09375 2.363282 2.765625 5.660156 1.769531 8.652344l-8.828125 26.480469c-1.199219 3.605469-4.574219 6.039062-8.375 6.039062zm0 0" fill="#fac176"/><path d="m185.371094 125.921875c-4.046875-.003906-7.574219-2.757813-8.554688-6.683594l-8.828125-35.3125c-.816406-3.074219.085938-6.355469 2.363281-8.578125 2.277344-2.222656 5.578126-3.046875 8.632813-2.160156 3.058594.890625 5.398437 3.355469 6.128906 6.453125l8.828125 35.3125c.660156 2.636719.066406 5.433594-1.609375 7.578125s-4.246093 3.394531-6.964843 3.390625zm0 0" fill="#fac176"/><path d="m150.078125 134.75c-3.347656.003906-6.410156-1.886719-7.90625-4.878906l-8.828125-17.65625c-2.179688-4.359375-.410156-9.664063 3.949219-11.84375 4.359375-2.179688 9.664062-.414063 11.84375 3.949218l8.828125 17.652344c1.367187 2.738282 1.222656 5.984375-.382813 8.585938-1.605469 2.601562-4.445312 4.1875-7.503906 4.191406zm0 0" fill="#fac176"/><path d="m512 212.804688c0 35.308593-79.449219 0-79.449219 0-17.652343 61.792968-114.757812 44.136718-167.722656 44.136718s-97.105469 35.308594-132.414063 35.308594c-21.714843 0-30.015624 3.355469-33.28125 14.125.441407-25.597656 4.238282-32.394531 35.222657-32.394531 35.3125 0 79.449219-35.3125 132.414062-35.3125 52.964844 0 150.070313 17.65625 167.722657-44.136719 0 0 59.765624 26.570312 75.566406 10.59375 1.222656 2.378906 1.886718 5.003906 1.941406 7.679688zm0 0" fill="#fac176"/></svg>