<svg height="512pt" viewBox="0 -18 512.00345 512" width="512pt" xmlns="http://www.w3.org/2000/svg"><path d="m326.625 291.328125-16.675781-31.058594-42.503907-6.542969-126.851562 14.390626s-28.769531 48.386718-29.425781 50.351562c-.652344 1.960938 15.039062 53.617188 15.039062 53.617188l86.3125 37.265624 85.414063-32.308593c-8.03125-10.0625-31.867188-47.84375 28.691406-85.714844zm0 0" fill="#f18d46"/><path d="m358.316406 471.234375c-19.953125-15.007813-31.867187-19.507813-95.515625-28.25-63.648437-8.738281-117.320312-9.972656-149.804687-49.964844-16.242188-19.949219-16.242188-35.574219-12.179688-46.167969 2.503906-6.421874 6.714844-12.039062 12.179688-16.242187 6.203125-.648437 12.457031.515625 18.007812 3.355469 6.847656 4.074218 11.289063 11.214844 11.917969 19.15625 3.796875 26.21875 56.230469 18.714844 58.703125-26.21875.53125-9.621094 1.414062-20.039063 2.296875-30.632813h.441406c26.480469 0 16.328125-39.546875 52.964844-13.0625 6.496094 4.96875 13.773437 8.816407 21.539063 11.386719-3.867188 6.804688-9.988282 12.046875-17.300782 14.832031-17.746094 7.238281-28.25 30.71875-30.015625 53.40625 8.476563 5.117188 25.160157 10.679688 57.46875 14.035157 19.773438 2.03125 42.195313-8.738282 68.058594 23.214843 17.566406 21.71875 38.664063 21.1875 68.679687 43.699219 29.925782 22.507812-47.492187 42.460938-67.441406 27.453125zm0 0" fill="#fac176"/><path d="m358.316406 471.234375c-19.953125-15.007813-31.867187-19.507813-95.515625-28.25-63.648437-8.738281-117.320312-9.972656-149.804687-49.964844-16.242188-19.949219-16.242188-35.574219-12.179688-46.167969.796875-2.109374 1.832032-4.125 3.085938-6-1.179688 14.394532 3.941406 28.597657 14.039062 38.929688 32.484375 39.988281 86.15625 41.222656 149.800782 49.964844 63.648437 8.738281 75.566406 13.238281 95.515624 28.246094 13.507813 10.152343 53.40625 4.324218 68.414063-7.589844 9.179687 19.507812-55.347656 34.335937-73.355469 20.832031zm0 0" fill="#f18d46"/><path d="m278.867188 294.59375c-7.765626-2.570312-15.042969-6.417969-21.539063-11.386719-36.636719-26.484375-26.484375 13.0625-52.964844 13.0625h-.441406l33.898437-49.34375zm0 0" fill="#fac176"/><path d="m398.039062 296.359375-.089843-.089844c-16.179688-9.484375-35.304688-12.632812-53.667969-8.824219-30.546875 6.089844-49.082031 12.710938-65.414062 7.148438-7.765626-2.570312-15.042969-6.417969-21.539063-11.386719-36.636719-26.484375-26.484375 13.0625-52.964844 13.0625h-.441406c-26.484375-.351562-70.179687-30.453125-70.179687 22.246094.089843 5.277344-.839844 10.523437-2.738282 15.449219-5.550781-2.839844-11.804687-4.003906-18.007812-3.355469-5.464844 4.203125-9.675782 9.820313-12.179688 16.242187-.871094-.515624-1.671875-1.140624-2.386718-1.851562-8.828126-8.828125-17.652344-17.65625 0-52.964844 25.777343-51.554687-17.652344-79.449218 26.484374-114.761718 37.871094-30.277344 103.460938-11.828126 140.800782-51.816407l131.53125 42.285157zm0 0" fill="#f9eab0"/><path d="m256.003906 232.671875c-9.960937 8.53125-22.269531 13.847656-35.3125 15.253906-17.652344 0-35.308594-38.140625 0-53.394531 35.3125-15.257812 35.3125 38.140625 35.3125 38.140625zm0 0" fill="#f18d46"/><path d="m167.71875 256.015625c-4.203125-.003906-7.820312-2.972656-8.648438-7.09375-2.074218-10.691406-5.011718-21.199219-8.78125-31.417969-.136718 1.0625-.207031 2.132813-.214843 3.203125 0 4.875-3.953125 8.828125-8.828125 8.828125s-8.828125-3.953125-8.828125-8.828125c0-12.214843 4.625-26.484375 17.65625-26.484375 4.804687 0 16.0625 0 26.304687 51.234375.957032 4.78125-2.144531 9.429688-6.921875 10.386719-.574219.117188-1.15625.171875-1.738281.171875zm0 0" fill="#f18d46"/><path d="m512.003906 345c0 44.136719-52.964844 44.136719-79.449218 17.65625-26.480469-26.484375-26.480469-61.792969-61.792969-123.589844-16.15625-29.65625-37.023438-56.488281-61.792969-79.445312l-35.308594-26.484375c-52.136718-54.746094-129.925781-76.800781-203.035156-57.554688-31.867188 7.945313-63.734375 30.277344-69.652344-4.324219-.683594-4.410156-1.0117185-8.871093-.96874975-13.332031 0-1.867187.17968775-3.726562.52734375-5.5625 8.917969-49.875 138.242188-81.832031 290.78125-12.09375 203.035156 92.867188 220.691406 287.074219 220.691406 304.730469zm0 0" fill="#fac176"/><g fill="#f18d46"><path d="m467.875 345.03125c-3.980469 0-7.472656-2.660156-8.523438-6.5-1.046874-3.839844.601563-7.910156 4.03125-9.933594 3.761719-7.1875-6.035156-42.855468-21.242187-77.085937-1.980469-4.453125.027344-9.671875 4.480469-11.652344 4.457031-1.980469 9.671875.027344 11.652344 4.480469 17.671874 39.761718 34.367187 89.34375 13.539062 99.757812-1.222656.613282-2.570312.933594-3.9375.933594zm0 0"/><path d="m281.25 84.671875c-1.5625 2.707031-4.464844 4.363281-7.589844 4.328125-1.574218.007812-3.125-.386719-4.503906-1.148438-143.976562-84.746093-263.589844-18.273437-264.738281-17.65625-1.039063.644532-2.222657 1.007813-3.445313 1.0625-.683594-4.410156-1.0117185-8.871093-.96874975-13.332031 0-1.867187.17968775-3.726562.52734375-5.5625 25.070312-12.535156 139.917969-60.820312 277.628906 20.214844 4.175782 2.5 5.554688 7.898437 3.089844 12.09375zm0 0"/></g></svg>