<svg id="dino19" enable-background="new 0 0 300 300" height="512" viewBox="0 0 300 300" width="512" xmlns="http://www.w3.org/2000/svg"><circle cx="135.382" cy="130" fill="#edebdc" r="90"/><path d="m48.749 68.223s6.139-39.281 35.265-16.66 15.075 63.346 15.075 63.346z" fill="#d9be6f"/><path d="m99.089 118.908c-.996 0-1.973-.373-2.719-1.066l-50.34-46.686c-.977-.906-1.438-2.236-1.234-3.551.133-.842 3.371-20.65 16.445-25.838 7.336-2.912 15.82-.672 25.227 6.637 31.031 24.1 17.016 66.035 16.402 67.809-.441 1.277-1.496 2.246-2.809 2.576-.324.08-.648.119-.972.119zm-45.989-52.105 43.781 40.604c2.375-11.68 4.684-37.148-15.32-52.686-7.02-5.449-12.867-7.301-17.371-5.518-6.43 2.553-9.859 12.215-11.09 17.6z" fill="#4c241d"/><path d="m181.382 172v84h-32c0-6.627 5.373-12 12-12h8v-16h-.814c-12.805 0-23.186-10.381-23.186-23.186v-26.814z" fill="#c1dbdc"/><path d="m181.382 260h-32c-2.211 0-4-1.791-4-4 0-8.822 7.176-16 16-16h4v-8.186c-13.496-1.582-24-13.088-24-27v-26.814c0-1.955 1.414-3.625 3.344-3.945l36-6c1.168-.197 2.348.135 3.242.893.898.76 1.414 1.877 1.414 3.053v84c0 2.208-1.79 3.999-4 3.999zm-26.926-8h22.926v-75.277l-28 4.666v23.426c0 10.578 8.609 19.186 19.188 19.186h.812c2.211 0 4 1.791 4 4v16c0 2.209-1.789 4-4 4h-8c-2.957-.001-5.543 1.61-6.926 3.999z" fill="#4c241d"/><path d="m39.635 76.72 13.482-8.654c11.539-7.407 26.908-2.731 32.463 9.876l21.176 48.058s63.45-36 122.935 12l35.691-72v80s-7.931 48-59.484 48c0 4.418-4.135 10-8.516 10h-48c-25.215 0-52.404-17.831-61.161-41.681l-25.087-68.319-15.918 2.676c-4.681.787-9.324-1.598-11.447-5.88-2.477-4.998-.808-11.076 3.866-14.076z" fill="#9dc1e4"/><path d="m197.382 208h-48c-27.277 0-55.793-19.461-64.914-44.303l-23.942-65.203-12.645 2.127c-6.457 1.082-12.77-2.148-15.695-8.045-3.395-6.848-1.117-15.111 5.289-19.223l13.48-8.652c6.465-4.154 14.391-5.266 21.734-3.049 7.391 2.225 13.422 7.574 16.551 14.676l19.492 44.236c14.758-6.789 68.363-26.869 119.547 11.277l33.52-67.619c.82-1.66 2.672-2.543 4.496-2.117 1.809.424 3.086 2.037 3.086 3.895v80c0 .219-.02.436-.055.652-.082.502-8.738 49.242-60.078 51.281-1.663 5.192-6.335 10.067-11.866 10.067zm-134.243-118c1.652 0 3.164 1.027 3.75 2.621l25.086 68.318c8.043 21.903 33.258 39.061 57.407 39.061h48c1.715 0 4.516-3.352 4.516-6 0-2.209 1.789-4 4-4 45.902 0 54.684-40.104 55.484-44.355v-62.569l-28.109 56.701c-.535 1.086-1.539 1.869-2.727 2.129-1.18.254-2.422-.035-3.367-.793-56.719-45.766-117.832-11.982-118.449-11.635-.98.559-2.16.672-3.23.318-1.074-.355-1.945-1.148-2.402-2.184l-21.177-48.057c-2.184-4.959-6.391-8.691-11.539-10.244-5.113-1.535-10.617-.762-15.105 2.123l-13.48 8.652v.002c-2.973 1.906-4.023 5.746-2.441 8.934 1.344 2.713 4.219 4.223 7.199 3.709l15.918-2.676c.221-.037.444-.055.666-.055zm-23.504-13.279h.039z" fill="#4c241d"/><path d="m131.382 158-19.859 28.572c-4.02 5.783-11.901 7.338-17.816 3.516l-6.325-4.088-7.505 10.007c-2.372 3.163-6.996 3.492-9.791.696-1.668-1.668-2.301-4.11-1.653-6.379l3.058-10.704c2.121-7.424 10.004-11.582 17.33-9.141l10.561 3.521 3.469-12.142c2.804-9.812 10.63-17.383 20.531-19.858" fill="#9dc1e4"/><path d="m74.678 202.605c-2.773 0-5.445-1.098-7.422-3.072-2.695-2.695-3.719-6.645-2.672-10.309l3.059-10.705c1.328-4.648 4.418-8.453 8.695-10.709 4.277-2.254 9.156-2.66 13.746-1.127l6.598 2.201 2.32-8.127c3.188-11.15 12.156-19.826 23.41-22.639 2.137-.547 4.312.77 4.848 2.91.539 2.145-.766 4.316-2.91 4.852-8.484 2.121-15.25 8.664-17.652 17.076l-3.469 12.143c-.301 1.049-1.016 1.93-1.98 2.438-.965.51-2.09.604-3.133.258l-10.562-3.521c-2.496-.832-5.156-.615-7.484.613s-4.008 3.299-4.73 5.832l-3.059 10.705c-.25.871-.008 1.811.633 2.451.699.695 1.52.748 1.941.725.426-.031 1.227-.199 1.824-.994l7.504-10.006c1.258-1.68 3.602-2.102 5.371-.959l6.324 4.088c4.129 2.67 9.562 1.596 12.359-2.439l19.859-28.572c1.262-1.812 3.75-2.262 5.566-1.002 1.816 1.262 2.266 3.754 1.004 5.568l-19.859 28.572c-5.281 7.59-15.504 9.615-23.273 4.592l-3.191-2.062-5.266 7.023c-1.828 2.436-4.621 3.955-7.656 4.172-.246.017-.496.024-.743.024z" fill="#4c241d"/><path d="m203.382 162s28 28-8 48l8.211 4.692c3.58 2.046 5.789 5.853 5.789 9.976v31.332h-32c0-6.627 5.373-12 12-12h8v-16h-.814c-12.805 0-23.186-10.381-23.186-23.186v-26.814" fill="#9dc1e4"/><g fill="#4c241d"><path d="m209.382 260h-32c-2.211 0-4-1.791-4-4 0-8.822 7.176-16 16-16h4v-8.186c-13.496-1.582-24-13.088-24-27v-26.814c0-2.209 1.789-4 4-4s4 1.791 4 4v26.814c0 10.578 8.609 19.186 19.188 19.186h.812c2.211 0 4 1.791 4 4v16c0 2.209-1.789 4-4 4h-8c-2.957 0-5.543 1.611-6.926 4h22.926v-27.332c0-2.68-1.445-5.172-3.773-6.504l-8.211-4.691c-1.254-.717-2.023-2.053-2.016-3.496.008-1.445.797-2.771 2.059-3.473 9.688-5.383 15.113-11.746 16.133-18.914 1.684-11.809-8.918-22.66-9.027-22.768-1.551-1.566-1.547-4.098.016-5.654 1.57-1.557 4.094-1.553 5.648.004.551.553 13.504 13.709 11.293 29.488-1.133 8.088-5.949 15.189-14.348 21.176l2.422 1.383c4.816 2.754 7.805 7.906 7.805 13.449v31.332c-.001 2.209-1.791 4-4.001 4z"/><circle cx="61.382" cy="80" r="2.655"/></g></svg>