<svg height="511pt" viewBox="0 -29 511.38748 511" width="511pt" xmlns="http://www.w3.org/2000/svg"><path d="m503.320312 348.152344c0 17.355468-26.03125 17.355468-52.066406 0-26.035156-17.355469-60.746094-17.355469-104.136718-26.03125-43.386719-8.679688-86.777344-43.390625-112.8125-26.035156-26.035157 17.355468-34.710938 8.675781-34.710938 17.355468 0 8.679688 26.035156 60.746094 52.066406 43.390625 26.035156-17.355469 130.171875 29.070313 156.203125 46.425781 15.289063 10.277344 34.273438 13.445313 52.070313 8.679688-8.679688 26.03125-43.390625 52.066406-52.070313 34.710938-8.675781-17.355469-26.03125-11.714844-34.710937-11.714844-21.535156.464844-42.707032-5.585938-60.746094-17.355469-26.035156-17.355469-60.746094-26.035156-104.136719-26.035156-43.386719 0-52.066406-17.355469-52.066406-17.355469 8.679687 0 17.355469-17.355469 17.355469-17.355469-16.628906-25.660156-22.835938-56.699219-17.355469-86.78125.820313-4.550781 1.199219-9.171875 1.128906-13.796875 0-1.042968-.085937-2.082031-.085937-3.039062-.089844 0-.089844-.085938-.175782-.085938-4.773437-2.34375-10.152343-5.03125-15.621093-7.808594l-2.601563-1.300781c-17.355468-8.679687-43.390625 17.355469-60.746094 0-17.355468-17.359375-8.679687-43.390625-8.679687-43.390625-11.023437 5.015625-23.683594 5.015625-34.710937 0 4.953124-4.503906 8.046874-10.691406 8.679687-17.355468-8.679687-8.679688-43.390625-8.679688-43.390625-8.679688 15.832031-13.707031 33.324219-25.371094 52.066406-34.710938-8.675781-17.355468-52.066406-43.390624-52.066406-43.390624 18.460938-10.355469 40.121094-13.449219 60.746094-8.679688l-8.679688-17.355469c7.492188-5.667969 16.640625-8.714843 26.035156-8.675781 0 0 8.679688-52.070312 86.78125-60.746094 78.101563-8.679687 95.457032 52.066406 112.8125 78.101563 17.355469 26.035156 86.777344 60.746093 95.457032 95.457031 8.679687 34.710938 52.066406 60.746094 52.066406 60.746094 7.492188-5.667969 16.640625-8.71875 26.035156-8.679688 0 26.035156 26.035156 17.359375 26.035156 43.390625 0 26.035157 26.03125 43.390625 26.03125 78.101563zm0 0" fill="#f9eab0"/><g fill="#fac176"><path d="m459.933594 411.9375c-8.679688 26.03125-43.390625 52.066406-52.070313 34.710938-8.675781-17.355469-26.03125-11.714844-34.710937-11.714844-21.535156.464844-42.707032-5.585938-60.746094-17.355469-26.035156-17.355469-60.746094-26.035156-104.136719-26.035156-43.386719 0-52.066406-17.355469-52.066406-17.355469 4.945313 0 9.894531-5.640625 13.277344-10.5 13.667969 7.980469 29.425781 11.640625 45.210937 10.5 43.390625 0 78.101563 8.675781 104.136719 26.035156 18.039063 11.769532 39.210937 17.820313 60.746094 17.355469 8.679687 0 26.035156-5.640625 34.710937 11.714844 6.597656 13.191406 28.117188 1.386719 41.914063-16.402344 2.429687-.519531 3.734375-.953125 3.734375-.953125zm0 0"/><path d="m502.703125 347.898438c-1.191406-.003907-2.371094-.25-3.464844-.726563-65.339843-28.539063-65.339843-36.886719-65.339843-42.410156-.097657-4.628907 1.699218-9.101563 4.976562-12.378907 3.273438-3.277343 7.746094-5.074218 12.378906-4.976562 4.339844 0 8.015625 3.203125 8.601563 7.503906.589843 4.300782-2.089844 8.371094-6.269531 9.535156 16.738281 10.417969 34.335937 19.386719 52.601562 26.816407 3.765625 1.648437 5.855469 5.710937 5.015625 9.730469-.84375 4.023437-4.390625 6.90625-8.5 6.902343zm0 0"/><path d="m347.128906 235.359375c-3.292968.003906-6.300781-1.851563-7.773437-4.796875-16.058594-32.125-48.523438-48.355469-82.898438-65.539062-13.710937-6.988282-28.613281-11.339844-43.925781-12.835938-19.851562-2.78125-39.472656-7-58.714844-12.617188-4.605468-1.320312-7.273437-6.125-5.957031-10.730468 1.320313-4.609375 6.125-7.277344 10.730469-5.957032 18.523437 5.40625 37.414062 9.464844 56.523437 12.140626 17.125 1.738281 33.777344 6.648437 49.105469 14.472656 35.40625 17.703125 72.011719 36.007812 90.664062 73.304687 1.34375 2.691407 1.199219 5.882813-.378906 8.441407-1.578125 2.558593-4.371094 4.117187-7.375 4.121093zm0 0"/><path d="m121.492188 131.226562c-17.183594 1.121094-33.558594-7.421874-42.476563-22.152343-1.667969-3.339844-1.011719-7.375 1.628906-10.015625 20.90625-20.90625 51-11.203125 52.269531-10.777344 4.550782 1.507812 7.019532 6.417969 5.515626 10.96875-1.507813 4.550781-6.417969 7.015625-10.96875 5.511719-9.332032-2.746094-19.339844-2.074219-28.222657 1.898437 6.3125 4.992188 14.210938 7.550782 22.253907 7.207032 4.792968 0 8.675781 3.886718 8.675781 8.679687s-3.882813 8.679687-8.675781 8.679687zm0 0"/><path d="m78.101562 174.613281c-9.285156.273438-18.273437-3.296875-24.84375-9.863281-6.570312-6.570312-10.140624-15.558594-9.867187-24.847656 0-3.734375 2.386719-7.050782 5.929687-8.230469 29.621094-9.863281 41.519532.015625 43.59375 2.097656 3.285157 3.316407 3.355469 8.640625.15625 12.046875-3.195312 3.402344-8.515624 3.664063-12.03125.589844-6.171874-2.519531-13.066406-2.613281-19.300781-.257812 2.050781 7.171874 8.941407 11.851562 16.363281 11.109374 4.792969 0 8.679688 3.886719 8.679688 8.679688s-3.886719 8.675781-8.679688 8.675781zm0 0"/><path d="m169.308594 226.402344c-6.074219 12.0625-9.894532 20.652344-12.238282 26.726562-4.773437-2.34375-10.152343-5.03125-15.621093-7.808594 3.039062-7.378906 7.117187-16.316406 12.324219-26.640624 5.933593-9.746094 4.953124-22.199219-2.429688-30.894532-7.539062-8.667968-19.398438-12.214844-30.460938-9.113281-2.945312.992187-6.195312.339844-8.527343-1.714844-2.332031-2.054687-3.390625-5.199219-2.777344-8.246093.613281-3.046876 2.808594-5.535157 5.753906-6.527344 17.746094-5.300782 36.953125.265625 49.117188 14.234375 12.015625 13.960937 13.960937 33.96875 4.859375 49.984375zm0 0"/></g><path d="m297.699219 256.320312c17.960937-9.839843-7.523438-47.429687-32.914063-62.976562-25.394531-15.546875-48.109375-3.097656-54.617187 22.5625-6.507813 25.660156 64.820312 52.863281 87.53125 40.414062zm0 0" fill="#f18d46"/><path d="m216.957031 61.800781c-3.25.003907-6.230469-1.808593-7.722656-4.699219-6.046875-8.789062-16.371094-13.628906-26.996094-12.65625-4.792969 0-8.679687-3.886718-8.679687-8.679687 0-4.789063 3.886718-8.675781 8.679687-8.675781 17.183594-1.121094 33.558594 7.421875 42.472657 22.152344 1.34375 2.6875 1.203124 5.882812-.378907 8.441406-1.578125 2.554687-4.367187 4.113281-7.375 4.117187zm0 0" fill="#f5efca"/><path d="m156.203125 35.765625c0 4.792969-3.886719 8.679687-8.675781 8.679687-4.792969 0-8.679688-3.886718-8.679688-8.679687 0-4.789063 3.886719-8.675781 8.679688-8.675781 4.789062 0 8.675781 3.886718 8.675781 8.675781zm0 0" fill="#f5efca"/></svg>