<svg id="dino20" enable-background="new 0 0 300 300" height="512" viewBox="0 0 300 300" width="512" xmlns="http://www.w3.org/2000/svg"><circle cx="147.938" cy="165.782" fill="#edebdc" r="90"/><path d="m217.2 273.757c-6.781 0-13.082-3.998-15.883-10.334-1.273-2.869-3.875-4.9-6.969-5.436l-7.18-1.242c-2.176-.377-3.633-2.447-3.258-4.623.375-2.178 2.414-3.633 4.625-3.26l7.18 1.242c5.73.992 10.559 4.76 12.914 10.08 1.703 3.85 5.777 6.084 9.965 5.467l4.953-.752c2.176-.33 4.223 1.172 4.555 3.355s-1.168 4.223-3.352 4.555l-4.957.752c-.867.131-1.734.196-2.593.196z" fill="#4c241d"/><path d="m223.485 259.677c-5.695 0-11.191-2.807-14.469-7.727-1.742-2.609-4.652-4.168-7.789-4.168h-7.289c-2.211 0-4-1.791-4-4s1.789-4 4-4h7.289c5.816 0 11.215 2.889 14.445 7.729 2.332 3.504 6.75 5.014 10.746 3.689l4.758-1.586c2.113-.707 4.359.436 5.059 2.529.699 2.096-.434 4.361-2.527 5.061l-4.758 1.586c-1.797.597-3.641.887-5.465.887z" fill="#4c241d"/><path d="m146.423 227.12s19.253-110.702 115.515-144.394c0 0-72.197 57.758-72.197 163.646z" fill="#e66353"/><path d="m189.743 250.372c-.551 0-1.105-.113-1.625-.344l-43.32-19.252c-1.676-.746-2.629-2.535-2.316-4.342.195-1.131 20.781-113.41 118.137-147.482 1.828-.639 3.867.131 4.816 1.836.945 1.703.523 3.842-.996 5.061-.707.568-70.695 57.912-70.695 160.523 0 1.354-.684 2.615-1.82 3.354-.662.427-1.42.646-2.181.646zm-38.75-25.6 34.832 15.48c1.906-72.338 37.262-122.16 58.27-145.518-68.735 35.388-89.458 113.659-93.102 130.038z" fill="#4c241d"/><path d="m117.938 235.782v-84c-1.36-48.966 20.785-94.277 62.789-119.479l4.201-2.521s-82.99 122-5.88 190.48c6.644 5.9 12.862 12.281 16.162 20.531l2.852 7.13c.792 1.979.328 4.24-1.18 5.747-1.427 1.427-3.538 1.925-5.453 1.287l-11.315-3.772s-23.718 23.718-49.659 13.835c-6.324-2.409-13.039-3.623-19.759-2.827l-67.529 8.005c-1.668.152-3.318-.446-4.503-1.63-3.247-3.247 7.273-16.787 7.273-16.787 8-8 15.451-7.76 24-8 16.576-.463 48.001-7.999 48.001-7.999z" fill="#fc8c29"/><g fill="#4c241d"><path d="m42.7 274.216c-2.617 0-5.051-1.004-6.863-2.818-3.809-3.812-1.473-11.236 6.941-22.07.105-.131.215-.256.332-.373 8.711-8.713 17.195-8.928 25.398-9.135l1.316-.035c12.988-.365 35.867-5.311 44.113-7.182v-80.82c-1.438-51.738 22.762-97.727 64.73-122.908l4.199-2.521c1.621-.965 3.68-.676 4.965.682 1.289 1.365 1.457 3.443.402 4.996-.809 1.191-80.102 119.904-6.531 185.242 6.77 6.012 13.543 12.844 17.223 22.035l2.852 7.129c1.387 3.469.578 7.42-2.066 10.062-2.512 2.512-6.172 3.375-9.547 2.254l-9.074-3.025c-6.371 5.596-28.035 22.186-52.055 13.033-6.262-2.385-12.266-3.266-17.867-2.594l-67.527 8.006c-.316.026-.629.042-.941.042zm-.574-8.082c.211.072.426.109.684.082l67.414-7.994c6.887-.812 14.18.215 21.66 3.062 23.133 8.812 45.184-12.713 45.406-12.93 1.07-1.064 2.652-1.436 4.09-.963l11.316 3.771c.477.156 1.004.033 1.355-.318.379-.379.496-.941.297-1.436l-2.852-7.129c-3.059-7.65-9.066-13.666-15.105-19.027-62.582-55.58-23.031-145.488-3.648-180.807-33.242 24.65-52.043 64.617-50.805 109.225v84.111c0 1.85-1.27 3.459-3.066 3.891-1.301.311-32.023 7.637-48.82 8.107l-1.34.035c-7.762.197-13.387.34-19.77 6.621-3.32 4.318-6.293 9.464-6.816 11.699zm75.812-30.352h.039z"/><path d="m145.942 215.782c-1.469 0-2.879-.809-3.582-2.211-.988-1.977-.188-4.379 1.789-5.367l16-8c1.977-.988 4.375-.188 5.367 1.789.988 1.977.188 4.379-1.789 5.367l-16 8c-.574.287-1.184.422-1.785.422z"/><path d="m133.938 183.784c-1.637 0-3.176-1.014-3.762-2.645-.75-2.076.324-4.369 2.402-5.119l12.465-4.5c2.09-.756 4.375.326 5.121 2.404.75 2.076-.324 4.369-2.402 5.119l-12.465 4.5c-.449.163-.91.241-1.359.241z"/><path d="m144.692 152.989c-.109 0-.219-.004-.332-.014l-14.75-1.207c-2.199-.18-3.84-2.111-3.66-4.312.18-2.203 2.051-3.861 4.316-3.66l14.75 1.207c2.199.18 3.84 2.111 3.66 4.312-.172 2.092-1.922 3.674-3.984 3.674z"/><path d="m193.723 200.784c-.523 0-1.051-.104-1.562-.32l-11.785-5c-2.035-.861-2.984-3.211-2.121-5.244.867-2.037 3.215-2.977 5.246-2.119l11.785 5c2.035.861 2.984 3.211 2.121 5.244-.649 1.523-2.129 2.439-3.684 2.439z"/><path d="m200.438 171.919c-.488 0-.984-.09-1.465-.279l-10.5-4.135c-2.055-.811-3.066-3.133-2.258-5.188.812-2.055 3.141-3.068 5.188-2.258l10.5 4.135c2.055.811 3.066 3.133 2.258 5.188-.621 1.574-2.129 2.537-3.723 2.537z"/><path d="m211.844 149.094c-.637 0-1.285-.152-1.887-.475l-9.91-5.312c-1.945-1.043-2.68-3.469-1.637-5.416 1.043-1.943 3.473-2.676 5.418-1.635l9.91 5.312c1.945 1.043 2.68 3.469 1.637 5.416-.722 1.345-2.105 2.11-3.531 2.11z"/><circle cx="57.938" cy="255.782" r="2.68"/></g></svg>