<svg id="dino3" enable-background="new 0 0 300 300" height="512" viewBox="0 0 300 300" width="512" xmlns="http://www.w3.org/2000/svg"><circle cx="129.732" cy="132" fill="#edebdc" r="90"/><path d="m123.732 250v-3.533c0-3.695 2.434-6.949 5.979-7.991l10.624-3.125c2.014-.592 3.397-2.441 3.397-4.54 0-1.387-.593-2.691-1.652-3.587-4.388-3.711-15.366-15.961-5.776-39.936h35.298l.13 62.712z" fill="#a9ba5a"/><path d="m171.732 254h-48c-2.209 0-4-1.791-4-4v-3.533c0-5.432 3.639-10.297 8.85-11.83l10.625-3.125c.311-.09.525-.379.525-.701 0-.152-.041-.367-.234-.531-4.33-3.662-17.621-17.693-6.908-44.479.607-1.518 2.08-2.514 3.715-2.514h35.297c2.205 0 3.996 1.785 4 3.992l.131 62.713c.002 1.062-.418 2.082-1.168 2.834-.753.752-1.77 1.174-2.833 1.174zm-43.974-8h39.967l-.115-54.713h-28.533c-6.836 19.551 1.533 29.453 5.588 32.883 1.949 1.648 3.068 4.068 3.068 6.641 0 3.848-2.578 7.293-6.27 8.377l-10.623 3.125c-1.68.494-2.893 1.972-3.082 3.687z" fill="#4c241d"/><path d="m95.123 146.106-28.344 12.147c-6.91 2.962-14.876-.616-17.254-7.748l-1.466-4.399-2.225 1.113c-5.269 2.635-11.676.499-14.311-4.77l-1.775-3.55c-3.013-6.025-1.228-13.346 4.22-17.308l26.804-19.493c15.683-11.406 37.657-7.84 48.928 7.94 5.907 8.269 13.452 15.235 22.166 20.463l1.279.767c9.828 5.897 20.839 9.546 32.243 10.687l23.283 2.328c10.289 1.029 20.176 4.244 29.435 8.849 12.781 6.357 34.387 12.093 53.506-7.026 0 0 4.626 23.129-43.549 44.776-11.837 5.319-24.608 8.386-37.56 9.195l-37.795 2.362c-23.388 1.462-44.699-13.384-51.433-35.829z" fill="#a9ba5a"/><path d="m149.476 206.541c-23.965 0-45.062-15.543-52.033-38.781l-4.863-16.211-24.225 10.381c-4.324 1.852-9.258 1.811-13.543-.117-4.287-1.924-7.596-5.584-9.082-10.043l-.055-.166c-2.988.998-6.207 1.004-9.25-.01-3.717-1.24-6.729-3.852-8.48-7.355l-1.775-3.551c-3.902-7.807-1.611-17.199 5.447-22.33l26.801-19.494c8.455-6.15 18.791-8.615 29.115-6.939 10.318 1.676 19.346 7.283 25.422 15.789 5.623 7.871 12.678 14.385 20.969 19.359l1.279.768c9.26 5.555 19.836 9.061 30.584 10.135l23.283 2.328c10.154 1.016 20.523 4.127 30.816 9.248 12.982 6.457 32.008 10.613 48.898-6.271 1.041-1.045 2.568-1.428 3.988-1 1.41.428 2.473 1.598 2.762 3.043.215 1.072 4.67 26.518-45.834 49.209-12.186 5.475-25.291 8.684-38.949 9.539l-37.795 2.361c-1.165.071-2.325.108-3.48.108zm-54.353-64.434c.578 0 1.158.125 1.693.377 1.033.482 1.811 1.383 2.139 2.473l6.152 20.504c6.23 20.777 25.736 34.357 47.35 32.986l37.795-2.361c12.695-.795 24.865-3.773 36.172-8.852 25.664-11.533 35.445-23.258 39.131-31.072-18.852 12.111-38.393 5.939-49.23.553-9.426-4.689-18.861-7.533-28.051-8.451l-23.283-2.328c-11.914-1.191-23.639-5.078-33.904-11.236l-1.279-.768c-9.236-5.543-17.098-12.799-23.361-21.568-4.826-6.758-11.998-11.211-20.195-12.541-8.189-1.34-16.408.625-23.125 5.51l-26.803 19.494c-3.883 2.824-5.143 7.99-2.996 12.283l1.775 3.551c.797 1.594 2.164 2.779 3.854 3.344 1.693.561 3.496.434 5.09-.363l2.227-1.111c1.035-.521 2.248-.562 3.318-.117 1.07.443 1.896 1.33 2.264 2.43l1.467 4.398c.791 2.377 2.484 4.25 4.77 5.275 2.287 1.025 4.814 1.047 7.113.062l28.344-12.146c.501-.218 1.038-.326 1.573-.326z" fill="#4c241d"/><path d="m48.062 150.107c-1.469 0-2.881-.809-3.582-2.211-.988-1.977-.188-4.379 1.789-5.367l35.299-17.65c1.982-.988 4.379-.186 5.367 1.789.988 1.977.188 4.379-1.789 5.367l-35.299 17.65c-.574.288-1.185.422-1.785.422z" fill="#4c241d"/><path d="m153.953 169.638s-22.776 34.164 4.495 63.279c.866.925 1.388 2.139 1.388 3.406 0 2.296-1.569 4.294-3.799 4.838l-12.646 3.086c-4.495 1.097-7.658 5.125-7.658 9.752h38.711c5.13 0 9.289-4.159 9.289-9.289v-10.36s29.05-23.532 23.167-58.83" fill="#a9ba5a"/><path d="m174.443 258h-38.711c-2.209 0-4-1.791-4-4 0-6.49 4.404-12.098 10.709-13.639l12.648-3.086c.438-.107.746-.498.746-.953 0-.215-.113-.463-.305-.666-29.104-31.074-5.152-67.869-4.906-68.236 1.223-1.834 3.701-2.328 5.539-1.111 1.838 1.221 2.338 3.703 1.121 5.543-.854 1.291-20.637 31.941 4.082 58.332 1.59 1.695 2.469 3.877 2.469 6.139 0 4.152-2.816 7.74-6.85 8.725l-12.646 3.088c-1.236.301-2.303.967-3.098 1.865h33.201c2.916 0 5.289-2.373 5.289-5.289v-10.359c0-1.201.545-2.344 1.477-3.104.273-.223 27.162-22.572 21.746-55.068-.363-2.18 1.109-4.24 3.287-4.604 2.195-.371 4.24 1.111 4.604 3.287 5.477 32.854-16.961 55.736-23.113 61.312v8.535c0 7.328-5.961 13.289-13.289 13.289z" fill="#4c241d"/><circle cx="65.708" cy="122.575" fill="#4c241d" r="3.879"/><path d="m106.889 170h-19.576c-6.396 0-11.581 5.185-11.581 11.581v6.419c0 3.314 2.686 6 6 6 3.314 0 6-2.686 6-6 0-3.314 2.686-6 6-6h24.923" fill="#a9ba5a"/><path d="m81.732 198c-5.514 0-10-4.486-10-10v-6.42c0-8.592 6.988-15.58 15.58-15.58h19.576c2.209 0 4 1.791 4 4s-1.791 4-4 4h-19.576c-4.18 0-7.58 3.4-7.58 7.58v6.42c0 1.104.896 2 2 2s2-.896 2-2c0-5.514 4.486-10 10-10h24.922c2.209 0 4 1.791 4 4s-1.791 4-4 4h-24.922c-1.104 0-2 .896-2 2 0 5.514-4.486 10-10 10z" fill="#4c241d"/></svg>